<svg width="26" height="26" viewBox="0 0 26 26" fill="none" xmlns="http://www.w3.org/2000/svg">
<path d="M12.6486 2.27901C16.0259 2.27901 16.4259 2.29191 17.7597 2.35277C18.9929 2.409 19.6626 2.61505 20.1083 2.78827C20.6987 3.01773 21.1201 3.29181 21.5627 3.7344C22.0053 4.17704 22.2794 4.59839 22.5088 5.18879C22.6821 5.63449 22.8881 6.30422 22.9444 7.53743C23.0052 8.87117 23.0181 9.27123 23.0181 12.6485C23.0181 16.0258 23.0052 16.4259 22.9444 17.7596C22.8881 18.9928 22.6821 19.6626 22.5088 20.1083C22.2794 20.6987 22.0053 21.12 21.5627 21.5626C21.1201 22.0052 20.6987 22.2793 20.1083 22.5088C19.6626 22.682 18.9929 22.888 17.7597 22.9443C16.4261 23.0051 16.0261 23.018 12.6486 23.018C9.27101 23.018 8.87105 23.0051 7.53746 22.9443C6.30424 22.888 5.63451 22.682 5.1888 22.5088C4.5984 22.2793 4.17705 22.0052 3.73446 21.5626C3.29187 21.12 3.01774 20.6987 2.78828 20.1083C2.61506 19.6626 2.40901 18.9928 2.35277 17.7596C2.29192 16.4259 2.27902 16.0258 2.27902 12.6485C2.27902 9.27123 2.29192 8.87117 2.35277 7.53743C2.40901 6.30422 2.61506 5.63449 2.78828 5.18879C3.01774 4.59839 3.29182 4.17704 3.73446 3.73445C4.17705 3.29181 4.5984 3.01773 5.1888 2.78827C5.63451 2.61505 6.30424 2.409 7.53746 2.35277C8.8712 2.29191 9.27126 2.27901 12.6486 2.27901ZM12.6486 0C9.21342 0 8.78268 0.0145604 7.43358 0.0761159C6.08729 0.137521 5.16782 0.351358 4.36327 0.664006C3.53152 0.987248 2.82614 1.41974 2.12292 2.12291C1.41975 2.82613 0.987251 3.53151 0.664058 4.36326C0.35136 5.1678 0.137521 6.08727 0.0761162 7.43355C0.0145605 8.78265 0 9.21339 0 12.6485C0 16.0837 0.0145605 16.5144 0.0761162 17.8635C0.137521 19.2098 0.35136 20.1292 0.664058 20.9338C0.987251 21.7655 1.41975 22.4709 2.12292 23.1741C2.82614 23.8773 3.53152 24.3098 4.36327 24.633C5.16782 24.9457 6.08729 25.1595 7.43358 25.2209C8.78268 25.2825 9.21342 25.297 12.6486 25.297C16.0837 25.297 16.5144 25.2825 17.8636 25.2209C19.2098 25.1595 20.1293 24.9457 20.9339 24.633C21.7656 24.3098 22.471 23.8773 23.1742 23.1741C23.8774 22.4709 24.3099 21.7655 24.6331 20.9338C24.9458 20.1292 25.1596 19.2098 25.221 17.8635C25.2826 16.5144 25.2971 16.0837 25.2971 12.6485C25.2971 9.21339 25.2826 8.78265 25.221 7.43355C25.1596 6.08727 24.9458 5.1678 24.6331 4.36326C24.3099 3.53151 23.8774 2.82613 23.1742 2.12291C22.471 1.41974 21.7656 0.987248 20.9339 0.664006C20.1293 0.351358 19.2098 0.137521 17.8636 0.0761159C16.5144 0.0145604 16.0837 0 12.6486 0Z" fill="white"/>
<path d="M12.6544 6.15933C9.06716 6.15933 6.15918 9.0673 6.15918 12.6545C6.15918 16.2417 9.06716 19.1497 12.6544 19.1497C16.2416 19.1497 19.1496 16.2417 19.1496 12.6545C19.1496 9.0673 16.2416 6.15933 12.6544 6.15933ZM12.6544 16.8707C10.3258 16.8707 8.4382 14.9831 8.4382 12.6545C8.4382 10.326 10.3258 8.43834 12.6544 8.43834C14.9829 8.43834 16.8706 10.326 16.8706 12.6545C16.8706 14.9831 14.9829 16.8707 12.6544 16.8707Z" fill="white"/>
<path d="M20.9238 5.89883C20.9238 6.73707 20.2443 7.41664 19.406 7.41664C18.5678 7.41664 17.8882 6.73707 17.8882 5.89883C17.8882 5.06055 18.5678 4.38098 19.406 4.38098C20.2443 4.38098 20.9238 5.06055 20.9238 5.89883Z" fill="white"/>
</svg>
