<svg width="25" height="25" viewBox="0 0 25 25" fill="none" xmlns="http://www.w3.org/2000/svg">
<path fill-rule="evenodd" clip-rule="evenodd" d="M6.03281 4.40732C6.03281 5.71971 5.03354 6.78179 3.47085 6.78179C1.96904 6.78179 0.969773 5.71971 1.0007 4.40732C0.969773 3.03116 1.96902 2 3.50078 2C5.03352 2 6.00285 3.03116 6.03281 4.40732ZM1.12634 23.9443V8.65759H5.87721V23.9433H1.12634V23.9443Z" fill="white"/>
<path fill-rule="evenodd" clip-rule="evenodd" d="M9.6857 13.5358C9.6857 11.6291 9.62288 10.0036 9.56006 8.65932H13.6866L13.906 10.7535H13.9998C14.625 9.78423 16.1877 8.31625 18.7197 8.31625C21.8451 8.31625 24.1896 10.3795 24.1896 14.8791V23.946H19.4387V15.4744C19.4387 13.5039 18.7516 12.1606 17.0324 12.1606C15.719 12.1606 14.9381 13.0671 14.626 13.9417C14.5004 14.2548 14.4385 14.6917 14.4385 15.1304V23.946H9.68761V13.5358H9.6857Z" fill="white"/>
</svg>
