<svg width="25" height="25" viewBox="0 0 25 25" fill="none" xmlns="http://www.w3.org/2000/svg">
<path fill-rule="evenodd" clip-rule="evenodd" d="M23.637 5.34044C24.0252 5.72864 24.3049 6.21177 24.4483 6.74171C25.274 10.0654 25.0832 15.3148 24.4643 18.7668C24.3209 19.2967 24.0412 19.7799 23.653 20.1681C23.2648 20.5563 22.7817 20.836 22.2517 20.9794C20.3117 21.5085 12.5034 21.5085 12.5034 21.5085C12.5034 21.5085 4.69511 21.5085 2.75506 20.9794C2.22512 20.836 1.74199 20.5563 1.35379 20.1681C0.965585 19.7799 0.685854 19.2967 0.542452 18.7668C-0.28808 15.4575 -0.0604042 10.2049 0.52642 6.75775C0.669819 6.22781 0.94955 5.74467 1.33775 5.35647C1.72596 4.96827 2.20909 4.68853 2.73903 4.54514C4.67908 4.01603 12.4874 4 12.4874 4C12.4874 4 20.2956 4 22.2357 4.5291C22.7656 4.67251 23.2487 4.95224 23.637 5.34044ZM16.4797 12.7542L10.0022 16.5061V9.00242L16.4797 12.7542Z" fill="white"/>
</svg>
